<svg width="400" height="400" viewBox="0 0 400 400" fill="none" xmlns="http://www.w3.org/2000/svg">
  <!-- Background Circle -->
  <circle cx="200" cy="200" r="180" fill="#E0E7FF" opacity="0.5"/>
  
  <!-- Head -->
  <ellipse cx="200" cy="140" rx="60" ry="70" fill="#FED7AA"/>
  
  <!-- Hair -->
  <path d="M140 120 Q140 60 200 60 Q260 60 260 120 Q260 100 240 95 Q230 70 200 70 Q170 70 160 95 Q140 100 140 120 Z" fill="#1E293B"/>
  
  <!-- Eyes -->
  <ellipse cx="180" cy="140" rx="8" ry="12" fill="#1E293B"/>
  <ellipse cx="220" cy="140" rx="8" ry="12" fill="#1E293B"/>
  <circle cx="182" cy="138" r="3" fill="#FFFFFF"/>
  <circle cx="222" cy="138" r="3" fill="#FFFFFF"/>
  
  <!-- Smile -->
  <path d="M170 160 Q200 175 230 160" stroke="#1E293B" stroke-width="3" stroke-linecap="round" fill="none"/>
  
  <!-- Body -->
  <rect x="140" y="200" width="120" height="140" rx="20" fill="#6366F1"/>
  
  <!-- Arms -->
  <ellipse cx="120" cy="240" rx="20" ry="60" fill="#FED7AA"/>
  <ellipse cx="280" cy="240" rx="20" ry="60" fill="#FED7AA"/>
  
  <!-- Laptop -->
  <rect x="150" y="270" width="100" height="60" rx="5" fill="#1E293B"/>
  <rect x="155" y="275" width="90" height="45" fill="#4F46E5"/>
  <line x1="155" y1="285" x2="245" y2="285" stroke="#818CF8" stroke-width="2"/>
  <line x1="155" y1="295" x2="230" y2="295" stroke="#818CF8" stroke-width="2"/>
  <line x1="155" y1="305" x2="240" y2="305" stroke="#818CF8" stroke-width="2"/>
  
  <!-- Decorative Code Symbols -->
  <text x="60" y="100" font-family="monospace" font-size="24" fill="#6366F1" opacity="0.6">&lt;/&gt;</text>
  <text x="320" y="120" font-family="monospace" font-size="20" fill="#EC4899" opacity="0.6">{ }</text>
  <text x="50" y="300" font-family="monospace" font-size="18" fill="#14B8A6" opacity="0.6">CSS</text>
  <text x="330" y="280" font-family="monospace" font-size="18" fill="#F59E0B" opacity="0.6">JS</text>
  
  <!-- Decorative Stars -->
  <circle cx="80" cy="180" r="4" fill="#FCD34D"/>
  <circle cx="340" cy="200" r="3" fill="#FCD34D"/>
  <circle cx="90" cy="350" r="3" fill="#FCD34D"/>
  <circle cx="320" cy="340" r="4" fill="#FCD34D"/>
</svg>
